<svg xmlns="http://www.w3.org/2000/svg" width="160" height="160" fill="none"><path fill="#363636" d="M119.8 47H40.3a3.2 3.2 0 0 0-3.2 3.2v46.4c0 1.8 1.5 3.2 3.2 3.2h79.5c1.8 0 3.2-1.4 3.2-3.2V50.2c0-1.8-1.4-3.2-3.2-3.2ZM45.4 80.2h-.2A3.2 3.2 0 0 1 42 77v-7.2c0-1.8 1.4-3.2 3.2-3.2h.2v13.6Zm61.2 15.2H50.3v-44h56.3v44Zm8.8-17.8a4.1 4.1 0 1 1 0-8.3 4.1 4.1 0 0 1 0 8.3ZM91.7 43H68.5v2.8h23.2V43ZM83.6 107.9v-3h8V102H68.6v2.8h8V140a6 6 0 0 0-3.6 5.6V160h14.3v-14.3a6 6 0 0 0-3.6-5.6v-28h4.8l5 1.3v-6.8l-5 1.3h-4.8Z"/></svg>